<svg width="24" height="24" viewBox="0 0 24 24" fill="none" xmlns="http://www.w3.org/2000/svg">
<path d="M6.48 8.82659L2.67188 12L6.48 15.1735C6.55785 15.2358 6.6225 15.313 6.67015 15.4006C6.7178 15.4882 6.74749 15.5845 6.7575 15.6837C6.76751 15.7829 6.75763 15.8831 6.72844 15.9785C6.69925 16.0739 6.65133 16.1624 6.58749 16.2391C6.52366 16.3157 6.44518 16.3788 6.35665 16.4247C6.26813 16.4706 6.17133 16.4984 6.07193 16.5065C5.97253 16.5146 5.87252 16.5027 5.77775 16.4717C5.68298 16.4406 5.59535 16.391 5.52 16.3257L1.02 12.5757C0.935562 12.5053 0.867628 12.4172 0.821009 12.3176C0.77439 12.2181 0.750225 12.1095 0.750225 11.9996C0.750225 11.8896 0.77439 11.781 0.821009 11.6815C0.867628 11.5819 0.935562 11.4938 1.02 11.4235L5.52 7.67346C5.67291 7.54616 5.87014 7.48481 6.06828 7.50292C6.26642 7.52103 6.44926 7.61711 6.57656 7.77002C6.70387 7.92294 6.76521 8.12016 6.7471 8.31831C6.72899 8.51645 6.63291 8.69928 6.48 8.82659ZM22.98 11.4235L18.48 7.67346C18.4043 7.61043 18.3169 7.56292 18.2228 7.53366C18.1287 7.5044 18.0298 7.49396 17.9317 7.50292C17.8336 7.51189 17.7382 7.54009 17.651 7.58592C17.5638 7.63175 17.4865 7.69431 17.4234 7.77002C17.2961 7.92294 17.2348 8.12016 17.2529 8.31831C17.271 8.51645 17.3671 8.69928 17.52 8.82659L21.3281 12L17.52 15.1735C17.4421 15.2358 17.3775 15.313 17.3299 15.4006C17.2822 15.4882 17.2525 15.5845 17.2425 15.6837C17.2325 15.7829 17.2424 15.8831 17.2716 15.9785C17.3007 16.0739 17.3487 16.1624 17.4125 16.2391C17.4763 16.3157 17.5548 16.3788 17.6433 16.4247C17.7319 16.4706 17.8287 16.4984 17.9281 16.5065C18.0275 16.5146 18.1275 16.5027 18.2223 16.4717C18.317 16.4406 18.4046 16.391 18.48 16.3257L22.98 12.5757C23.0644 12.5053 23.1324 12.4172 23.179 12.3176C23.2256 12.2181 23.2498 12.1095 23.2498 11.9996C23.2498 11.8896 23.2256 11.781 23.179 11.6815C23.1324 11.5819 23.0644 11.4938 22.98 11.4235ZM15.2559 3.04502C15.1634 3.01141 15.0651 2.99636 14.9667 3.00074C14.8683 3.00512 14.7717 3.02883 14.6825 3.07053C14.5932 3.11223 14.5131 3.1711 14.4466 3.24377C14.3801 3.31645 14.3286 3.4015 14.295 3.49409L8.295 19.9941C8.26124 20.0867 8.24608 20.1851 8.25039 20.2836C8.25469 20.3821 8.27838 20.4788 8.32009 20.5681C8.3618 20.6575 8.42071 20.7377 8.49346 20.8043C8.56621 20.8708 8.65137 20.9224 8.74406 20.956C8.82621 20.9852 8.91279 21.0001 9 21C9.15402 21 9.30431 20.9526 9.43044 20.8642C9.55658 20.7758 9.65244 20.6507 9.705 20.506L15.705 4.00596C15.7386 3.91338 15.7537 3.81508 15.7493 3.71669C15.7449 3.61829 15.7212 3.52172 15.6795 3.43249C15.6378 3.34325 15.5789 3.26311 15.5063 3.19663C15.4336 3.13015 15.3485 3.07863 15.2559 3.04502Z" fill="#909090"/>
</svg>
