<svg width="98" height="30" viewBox="0 0 98 30" fill="none" xmlns="http://www.w3.org/2000/svg">
<path d="M71.0528 15.18C71.0528 13.18 71.3328 11.42 71.8928 9.9C72.4728 8.38 73.2628 7.11 74.2628 6.09C75.2628 5.07 76.4528 4.3 77.8328 3.78C79.2328 3.26 80.7428 3 82.3628 3C84.0028 3 85.5128 3.26 86.8928 3.78C88.2728 4.3 89.4628 5.07 90.4628 6.09C91.4828 7.11 92.2728 8.38 92.8328 9.9C93.4128 11.42 93.7028 13.18 93.7028 15.18C93.7028 17.18 93.4128 18.94 92.8328 20.46C92.2728 21.98 91.4828 23.25 90.4628 24.27C89.4628 25.29 88.2728 26.06 86.8928 26.58C85.5128 27.1 84.0028 27.36 82.3628 27.36C80.7428 27.36 79.2328 27.1 77.8328 26.58C76.4528 26.08 75.2628 25.32 74.2628 24.3C73.2628 23.28 72.4728 22.01 71.8928 20.49C71.3328 18.97 71.0528 17.2 71.0528 15.18ZM78.8828 13.95L78.3428 14.76C79.4828 15.3 80.7728 15.66 82.2128 15.84C83.6528 16.02 85.0928 16.11 86.5328 16.11V15.21C85.0928 15.21 83.7128 15.12 82.3928 14.94C81.0928 14.74 79.9228 14.41 78.8828 13.95Z" fill="#448FFF"/>
<path d="M57.6241 3.44995C59.7641 3.44995 61.5941 3.61995 63.1141 3.95995C64.6341 4.27995 65.8741 4.81995 66.8341 5.57995C67.7941 6.33995 68.4941 7.33995 68.9341 8.57995C69.3941 9.79995 69.6241 11.3 69.6241 13.08C69.6241 16.28 68.6841 18.68 66.8041 20.28C64.9441 21.88 62.2141 22.59 58.6141 22.41V26.91H48.4141V3.44995H57.6241ZM55.5241 12.72C55.9441 13 56.4741 13.24 57.1141 13.44C57.7741 13.64 58.4641 13.81 59.1841 13.95C59.9041 14.09 60.6241 14.2 61.3441 14.28C62.0641 14.34 62.7041 14.37 63.2641 14.37V13.53C62.7041 13.53 62.0841 13.49 61.4041 13.41C60.7241 13.33 60.0441 13.22 59.3641 13.08C58.7041 12.94 58.0741 12.78 57.4741 12.6C56.8941 12.4 56.4241 12.19 56.0641 11.97L55.5241 12.72Z" fill="#448FFF"/>
<path d="M35.4829 22.56L34.1629 26.88H23.6629L28.4329 15.15L23.6629 3.44995H34.1629L35.4829 7.76995L36.8029 3.44995H47.3029L42.5329 15.15L47.3029 26.88H36.8029L35.4829 22.56Z" fill="#448FFF"/>
<path d="M22.54 26.91H4V3.44995H22.54V10.5H13V11.55H22.54V18.81H13V19.86H22.54V26.91Z" fill="#448FFF"/>
</svg>
